<svg xmlns="http://www.w3.org/2000/svg" viewBox="0 0 64 52"><defs><style>.cls-1{fill:#00cde2;}.cls-2{fill:#fff;opacity:0.4;}</style></defs><title>Diamond</title><g id="Layer_2" data-name="Layer 2"><g id="Layer_1-2" data-name="Layer 1"><path class="cls-1" d="M64,16a4,4,0,0,1-1,2.63l-28,32a4,4,0,0,1-6,0l-28-32a4,4,0,0,1,.18-5.46l12-12A4,4,0,0,1,16,0H48a4,4,0,0,1,2.83,1.17l12,12A4,4,0,0,1,64,16Z"/><polygon class="cls-2" points="26 0 18 16 32 16 46 16 38 0 26 0"/><path class="cls-2" d="M18,16,32,52a4,4,0,0,1-3-1.37l-28-32A4,4,0,0,1,0,16Z"/><path class="cls-2" d="M64,16a4,4,0,0,1-1,2.63l-28,32A4,4,0,0,1,32,52L46,16Z"/></g></g></svg>